<svg id="Layer_1" data-name="Layer 1" xmlns="http://www.w3.org/2000/svg" xmlns:xlink="http://www.w3.org/1999/xlink" width="316.81" height="99.87" viewBox="0 0 316.81 99.87"><defs><clipPath id="clip-path" transform="translate(-60.77 -95.76)"><rect x="330.02" y="104.26" width="47.56" height="91.17" transform="translate(-1.38 3.3) rotate(-0.53)" fill="none"/></clipPath></defs><title>klik_mig</title><g clip-path="url(#clip-path)"><path d="M332.42,195.63a2,2,0,0,1-.76-.14,2,2,0,0,1-1.23-1.82l-.37-38.91a2,2,0,0,1,3.95,0l.32,34.15,38.48-39.2-39.2-38.48.31,34a2,2,0,1,1-3.94,0l-.37-38.75A2,2,0,0,1,333,105l44,43.2a2,2,0,0,1,0,2.79l-43.2,44a2,2,0,0,1-1.39.59" transform="translate(-60.77 -95.76)" fill="#1d1d1b"/></g><line x1="271.26" y1="57.9" y2="55.96" fill="none" stroke="#000" stroke-miterlimit="10"/><text transform="translate(14.59 38.77)" font-size="45.61" font-family="HUSET, HUSET">KLIK MIG</text></svg>
